<svg width="709" height="610" viewBox="0 0 709 610" fill="none" xmlns="http://www.w3.org/2000/svg">
<path d="M321.456 94.4857C316.77 89.7994 309.172 89.7994 304.485 94.4857C299.799 99.172 299.799 106.77 304.485 111.456L344.79 151.761C349.477 156.448 357.075 156.448 361.761 151.761C366.447 147.075 366.447 139.477 361.761 134.791L321.456 94.4857Z" fill="#FFBD5A"/>
<path d="M573.456 334.486C568.77 329.799 561.172 329.799 556.485 334.486C551.799 339.172 551.799 346.77 556.485 351.456L596.79 391.761C601.477 396.448 609.075 396.448 613.761 391.761C618.447 387.075 618.447 379.477 613.761 374.791L573.456 334.486Z" fill="#FFBD5A"/>
<path d="M471 50C471 43.3726 465.627 38 459 38C452.373 38 447 43.3726 447 50V107C447 113.627 452.373 119 459 119C465.627 119 471 113.627 471 107V50Z" fill="#FFBD5A"/>
<path d="M597 231C590.373 231 585 236.373 585 243C585 249.627 590.373 255 597 255H654C660.627 255 666 249.627 666 243C666 236.373 660.627 231 654 231H597Z" fill="#FFBD5A"/>
<path d="M556.486 134.79C551.799 139.476 551.799 147.074 556.486 151.761C561.172 156.447 568.77 156.447 573.456 151.761L613.761 111.456C618.448 106.769 618.448 99.1713 613.761 94.4851C609.075 89.7988 601.477 89.7988 596.791 94.4851L556.486 134.79Z" fill="#FFBD5A"/>
<path d="M304.486 374.79C299.799 379.476 299.799 387.074 304.486 391.761C309.172 396.447 316.77 396.447 321.456 391.761L361.761 351.456C366.448 346.769 366.448 339.171 361.761 334.485C357.075 329.799 349.477 329.799 344.791 334.485L304.486 374.79Z" fill="#FFBD5A"/>
<path d="M264 231C257.373 231 252 236.373 252 243C252 249.627 257.373 255 264 255H321C327.627 255 333 249.627 333 243C333 236.373 327.627 231 321 231H264Z" fill="#FFBD5A"/>
<path d="M471 379C471 372.373 465.627 367 459 367C452.373 367 447 372.373 447 379V436C447 442.627 452.373 448 459 448C465.627 448 471 442.627 471 436V379Z" fill="#FFBD5A"/>
<path d="M459 343C514.228 343 559 298.228 559 243C559 187.772 514.228 143 459 143C403.772 143 359 187.772 359 243C359 298.228 403.772 343 459 343Z" fill="#FFBD5A"/>
<rect x="250" y="294" width="240" height="132" fill="#DCDCDC"/>
<rect x="130" y="277" width="240" height="119" fill="#DCDCDC"/>
<rect opacity="0.8" x="477" y="219" width="179" height="141" rx="70.5" fill="white"/>
<ellipse cx="489" cy="395.5" rx="144" ry="126.5" fill="#DCDCDC"/>
<rect x="179" y="390" width="320" height="132" fill="#DCDCDC"/>
<ellipse cx="271.5" cy="269" rx="141.5" ry="150" fill="#DCDCDC"/>
<circle cx="189" cy="402" r="120" fill="#D7D7D7"/>
<rect x="114" y="337" width="335" height="188" rx="94" fill="#DCDCDC"/>
<rect opacity="0.5" x="189" y="179" width="270" height="188" rx="94" fill="white"/>
</svg>
