<svg width="709" height="610" viewBox="0 0 500 401" fill="none" xmlns="http://www.w3.org/2000/svg">
<rect x="97" y="231" width="23.3196" height="74" rx="11.6598" transform="rotate(30 97 231)" fill="#6DB0FF"/>
<rect x="208.021" y="273.934" width="22.0589" height="76.041" rx="11.0294" transform="rotate(30 208.021 273.934)" fill="#6DB0FF"/>
<rect x="293.594" y="229" width="19.8598" height="79.6216" rx="9.92988" transform="rotate(30 293.594 229)" fill="#6DB0FF"/>
<rect x="120.035" y="307.205" width="19.5891" height="70.0707" rx="9.79454" transform="rotate(30 120.035 307.205)" fill="#6DB0FF"/>
<rect x="168.921" y="381" width="13.4119" height="29.8424" rx="6.70595" transform="rotate(30 168.921 381)" fill="#6DB0FF"/>
<rect x="386.921" y="327" width="13.4119" height="29.8424" rx="6.70595" transform="rotate(30 386.921 327)" fill="#6DB0FF"/>
<rect x="211.797" y="154" width="13.4119" height="127.593" rx="6.70595" transform="rotate(30 211.797 154)" fill="#6DB0FF"/>
<rect x="366.797" y="260" width="24.9774" height="127.593" rx="12.4887" transform="rotate(30 366.797 260)" fill="#6DB0FF"/>
<rect x="15" y="89" width="453" height="166" rx="83" fill="#9B9B9B"/>
<rect x="217" y="6" width="155" height="155" rx="77.5" fill="#999999"/>
<rect x="86" width="164" height="166" rx="82" fill="#8D8D8D"/>
<rect x="324.575" y="257" width="24.9774" height="25.1505" rx="12.4887" transform="rotate(30 324.575 257)" fill="#6DB0FF"/>
<rect x="235.575" y="353" width="24.9774" height="25.1505" rx="12.4887" transform="rotate(30 235.575 353)" fill="#6DB0FF"/>
<rect opacity="0.6" x="283" y="40" width="156" height="108" rx="54" fill="#606060"/>
</svg>
