<svg width="500" height="487" viewBox="0 0 500 487" fill="none" xmlns="http://www.w3.org/2000/svg">
<rect x="87" y="102.971" width="24" height="81" rx="12" transform="rotate(-45 87 102.971)" fill="#FFBD5A"/>
<rect x="339" y="342.971" width="24" height="81" rx="12" transform="rotate(-45 339 342.971)" fill="#FFBD5A"/>
<rect x="238" y="38" width="24" height="81" rx="12" fill="#FFBD5A"/>
<rect x="376" y="255" width="24" height="81" rx="12" transform="rotate(-90 376 255)" fill="#FFBD5A"/>
<rect x="355.971" y="160.246" width="24" height="81" rx="12" transform="rotate(-135 355.971 160.246)" fill="#FFBD5A"/>
<rect x="103.971" y="400.246" width="24" height="81" rx="12" transform="rotate(-135 103.971 400.246)" fill="#FFBD5A"/>
<rect x="43" y="255" width="24" height="81" rx="12" transform="rotate(-90 43 255)" fill="#FFBD5A"/>
<rect x="238" y="367" width="24" height="81" rx="12" fill="#FFBD5A"/>
<circle cx="250" cy="243" r="100" fill="#FFBD5A"/>
</svg>
